<svg width="37" height="36" viewBox="0 0 37 36" fill="none" xmlns="http://www.w3.org/2000/svg">
<path d="M25.2228 4.83396C26.9472 4.83911 28.5996 5.52641 29.8189 6.74577C31.0383 7.96513 31.7256 9.61746 31.7308 11.3419V24.3564C31.7256 26.0808 31.0383 27.7331 29.8189 28.9525C28.5996 30.1718 26.9472 30.8591 25.2228 30.8643H12.2083C10.4839 30.8591 8.83159 30.1718 7.61223 28.9525C6.39287 27.7331 5.70556 26.0808 5.70041 24.3564V11.3419C5.70556 9.61746 6.39287 7.96513 7.61223 6.74577C8.83159 5.52641 10.4839 4.83911 12.2083 4.83396H25.2228ZM25.2228 2.2312H12.2083C7.19736 2.2312 3.09766 6.33091 3.09766 11.3419V24.3564C3.09766 29.3673 7.19736 33.467 12.2083 33.467H25.2228C30.2338 33.467 34.3335 29.3673 34.3335 24.3564V11.3419C34.3335 6.33091 30.2338 2.2312 25.2228 2.2312Z" fill="#E3DFC4"/>
<path d="M27.1747 11.3417C26.7886 11.3417 26.4111 11.2272 26.0901 11.0127C25.769 10.7982 25.5188 10.4933 25.3711 10.1366C25.2233 9.77986 25.1846 9.38733 25.26 9.00863C25.3353 8.62994 25.5212 8.28208 25.7942 8.00905C26.0673 7.73603 26.4151 7.5501 26.7938 7.47477C27.1725 7.39944 27.5651 7.4381 27.9218 7.58586C28.2785 7.73362 28.5834 7.98385 28.7979 8.30489C29.0124 8.62593 29.1269 9.00338 29.1269 9.3895C29.1275 9.64602 29.0774 9.90013 28.9794 10.1372C28.8815 10.3743 28.7378 10.5898 28.5564 10.7712C28.375 10.9526 28.1595 11.0963 27.9224 11.1943C27.6853 11.2922 27.4312 11.3423 27.1747 11.3417ZM18.7152 12.6428C19.7449 12.6428 20.7515 12.9481 21.6076 13.5202C22.4638 14.0922 23.1311 14.9053 23.5251 15.8566C23.9192 16.808 24.0223 17.8547 23.8214 18.8647C23.6205 19.8746 23.1247 20.8022 22.3966 21.5303C21.6685 22.2584 20.7408 22.7543 19.7309 22.9551C18.721 23.156 17.6742 23.0529 16.7229 22.6589C15.7716 22.2648 14.9585 21.5975 14.3864 20.7414C13.8143 19.8852 13.509 18.8787 13.509 17.849C13.5105 16.4687 14.0595 15.1453 15.0355 14.1693C16.0115 13.1932 17.3349 12.6442 18.7152 12.6428ZM18.7152 10.04C17.1707 10.04 15.661 10.498 14.3768 11.3561C13.0926 12.2141 12.0917 13.4337 11.5007 14.8606C10.9096 16.2875 10.755 17.8576 11.0563 19.3724C11.3576 20.8872 12.1013 22.2786 13.1934 23.3707C14.2855 24.4628 15.677 25.2066 17.1918 25.5079C18.7066 25.8092 20.2767 25.6546 21.7036 25.0635C23.1305 24.4725 24.3501 23.4716 25.2081 22.1874C26.0662 20.9032 26.5242 19.3934 26.5242 17.849C26.5242 15.7779 25.7014 13.7917 24.237 12.3272C22.7725 10.8627 20.7863 10.04 18.7152 10.04Z" fill="#E3DFC4"/>
</svg>
