<svg width="36" height="36" viewBox="0 0 36 36" fill="none" xmlns="http://www.w3.org/2000/svg">
<path d="M15.1767 22.3115L22.8964 17.8492L15.1767 13.3869V22.3115ZM32.3713 10.665C32.5647 11.364 32.6985 12.3011 32.7878 13.4911C32.8919 14.681 32.9365 15.7073 32.9365 16.5998L33.0258 17.8492C33.0258 21.1067 32.7878 23.5014 32.3713 25.0334C31.9995 26.3721 31.1367 27.2348 29.7981 27.6067C29.099 27.8001 27.8198 27.9339 25.8564 28.0232C23.9228 28.1273 22.1527 28.1719 20.5166 28.1719L18.1516 28.2612C11.9193 28.2612 8.03709 28.0232 6.50505 27.6067C5.16637 27.2348 4.30366 26.3721 3.93181 25.0334C3.73844 24.3344 3.60458 23.3973 3.51533 22.2073C3.41121 21.0174 3.36659 19.9911 3.36659 19.0986L3.27734 17.8492C3.27734 14.5918 3.51533 12.197 3.93181 10.665C4.30366 9.32628 5.16637 8.46358 6.50505 8.09172C7.20414 7.89836 8.48332 7.76449 10.4467 7.67524C12.3804 7.57112 14.1504 7.5265 15.7866 7.5265L18.1516 7.43726C24.3839 7.43726 28.266 7.67524 29.7981 8.09172C31.1367 8.46358 31.9995 9.32628 32.3713 10.665Z" fill="#E3DFC4"/>
</svg>
