<svg width="37" height="36" viewBox="0 0 37 36" fill="none" xmlns="http://www.w3.org/2000/svg">
<g clip-path="url(#clip0_385_4666)">
<path d="M11.6473 33.467C25.1188 33.467 32.4883 22.3046 32.4883 12.6416C32.4883 12.3292 32.4883 12.0124 32.4749 11.7C33.9096 10.6614 35.1479 9.37553 36.1317 7.90265C34.7915 8.49356 33.3713 8.88302 31.9171 9.05837C33.4488 8.1428 34.5961 6.70223 35.1455 5.0044C33.7064 5.85697 32.1313 6.45547 30.4892 6.77369C29.3852 5.59794 27.9243 4.81904 26.3328 4.55764C24.7413 4.29624 23.108 4.56693 21.6859 5.32778C20.2638 6.08863 19.1323 7.29718 18.4666 8.76623C17.8009 10.2353 17.6383 11.8828 18.0038 13.4537C15.0916 13.3077 12.2426 12.5511 9.64157 11.2332C7.04058 9.91517 4.74567 8.06517 2.90569 5.80315C1.9716 7.41644 1.68654 9.32477 2.10838 11.1406C2.53023 12.9565 3.62736 14.5437 5.17698 15.58C4.01576 15.5405 2.88008 15.2287 1.86152 14.6697V14.7701C1.86352 16.4601 2.44899 18.0976 3.51897 19.4058C4.58894 20.714 6.0778 21.6127 7.73386 21.9499C7.10527 22.123 6.45593 22.2093 5.80393 22.2064C5.34428 22.2078 4.88555 22.1652 4.43401 22.0793C4.90208 23.5341 5.81346 24.8061 7.04053 25.7171C8.26759 26.6281 9.74887 27.1324 11.2769 27.1595C8.6811 29.1984 5.47462 30.3041 2.17388 30.2987C1.59227 30.3012 1.01106 30.2677 0.433594 30.1983C3.78367 32.3341 7.67428 33.4682 11.6473 33.467Z" fill="#E3DFC4"/>
</g>
<defs>
<clipPath id="clip0_385_4666">
<rect width="35.6981" height="35.6981" fill="white" transform="translate(0.433594)"/>
</clipPath>
</defs>
</svg>
